<?xml version="1.0" encoding="UTF-8"?>
<!-- Created with Grafika (https://www.grafika.cc/) -->
<svg xmlns="http://www.w3.org/2000/svg" xmlns:svg="http://www.w3.org/2000/svg" xmlns:xlink="http://www.w3.org/1999/xlink" width="256" height="256.000793457" viewBox="0 0 256 256.000793457" preserveAspectRatio="xMidYMid meet">
	<g transform="matrix(1, 0, 0, 1, 128, 128.00039672851562)">
		<rect x="-128" y="-128" width="256" height="256" style="fill:#FFFFFF;" />
		<g transform="matrix(1, 0, 0, 1, 385.009765625, 15.60546875)">
			<path d="M-513.009765625,-143.60546875 L-513.009765625,-85.18359375 L-511.630859375,-82.537109375 L-477.46875,-68.005859375 L-483.94921875,-7.8984375 L-403.083984375,8.30859375 L-383.46875,46.51953125 L-333.71484375,57.43359375 L-322.9453125,99.50390625 L-304.369140625,112.39453125 L-257.009765625,112.39453125 L-257.009765625,79.529296875 L-275.623046875,66.61328125 L-289.650390625,11.81640625 L-347.046875,-0.775390625 L-366.935546875,-39.521484375 L-424.97265625,-51.15234375 L-419.48828125,-102.0234375 L-472.685546875,-124.65234375 L-482.5625,-143.60546875 L-513.009765625,-143.60546875 Z" style="fill:#EDEDED;" />
			<path d="M-513.009765625,-143.60546875 L-513.009765625,-89.513671875 L-510.1875,-84.09765625 L-475.322265625,-69.265625 L-481.763671875,-9.5 L-401.744140625,6.537109375 L-382.119140625,44.767578125 L-332.08203125,55.744140625 L-321.19140625,98.28515625 L-300.859375,112.39453125 L-257.009765625,112.39453125 L-257.009765625,81.962890625 L-277.375,67.83203125 L-291.283203125,13.505859375 L-348.396484375,0.9765625 L-368.275390625,-37.75 L-427.158203125,-49.55078125 L-421.63671875,-100.763671875 L-474.12890625,-123.09375 L-484.818359375,-143.60546875 L-513.009765625,-143.60546875 Z" style="fill:#E9C8BC;" />
			<path d="M-513.009765625,-143.60546875 L-513.009765625,-97.083984375 L-507.6640625,-86.826171875 L-471.564453125,-71.470703125 L-477.94140625,-12.302734375 L-399.40234375,3.4375 L-379.7578125,41.701171875 L-329.2265625,52.787109375 L-318.125,96.154296875 L-294.720703125,112.39453125 L-257.009765625,112.39453125 L-257.009765625,86.224609375 L-280.443359375,69.962890625 L-294.138671875,16.462890625 L-350.755859375,4.041015625 L-370.6171875,-34.650390625 L-430.98046875,-46.74609375 L-425.39453125,-98.55859375 L-476.65234375,-120.36328125 L-488.763671875,-143.60546875 L-513.009765625,-143.60546875 Z" style="fill:#E08F71;" />
			<path d="M-513.009765625,-143.60546875 L-513.009765625,-103.576171875 L-505.5,-89.166015625 L-468.341796875,-73.359375 L-474.666015625,-14.70703125 L-397.392578125,0.779296875 L-377.734375,39.07421875 L-326.77734375,50.25390625 L-315.49609375,94.326171875 L-289.458984375,112.39453125 L-257.009765625,112.39453125 L-257.009765625,89.876953125 L-283.072265625,71.791015625 L-296.5859375,18.99609375 L-352.779296875,6.669921875 L-372.626953125,-31.9921875 L-434.255859375,-44.34375 L-428.615234375,-96.66796875 L-478.81640625,-118.0234375 L-492.1484375,-143.60546875 L-513.009765625,-143.60546875 Z" style="fill:#EB7730;" />
			<path d="M-513.009765625,-143.60546875 L-513.009765625,-108.984375 L-503.697265625,-91.115234375 L-465.658203125,-74.935546875 L-471.935546875,-16.708984375 L-395.720703125,-1.43359375 L-376.048828125,36.884765625 L-324.73828125,48.140625 L-313.3046875,92.8046875 L-285.07421875,112.39453125 L-257.009765625,112.39453125 L-257.009765625,92.919921875 L-285.263671875,73.314453125 L-298.626953125,21.109375 L-354.466796875,8.859375 L-374.298828125,-29.77734375 L-436.986328125,-42.341796875 L-431.298828125,-95.09375 L-480.619140625,-116.07421875 L-494.966796875,-143.60546875 L-513.009765625,-143.60546875 Z" style="fill:#FF8400;" />
		</g>
		<path d="M-128,-128 L-128,-110.69140625 L-112.91796875,-81.75 L-72.05859375,-64.369140625 L-78.1875,-7.51171875 L-5.35546875,7.0859375 L14.35546875,45.484375 L66.798828125,56.98828125 L78.71484375,103.537109375 L113.96875,128 L128,128 L128,118.26171875 L92.736328125,93.791015625 L79.85546875,43.47265625 L25.1484375,31.470703125 L5.35546875,-7.0859375 L-60.71484375,-20.328125 L-54.87890625,-74.44921875 L-101.37890625,-94.228515625 L-118.978515625,-128 L-128,-128 Z" style="fill:#FF7B00;" />
		<path d="M-128,-128 L-128,-119.345703125 L-110.033203125,-84.869140625 L-67.763671875,-66.888671875 L-73.8203125,-10.71484375 L-2.677734375,3.54296875 L17.0546875,41.98046875 L70.0625,53.609375 L82.220703125,101.1015625 L120.984375,128 L128,128 L128,123.130859375 L89.23046875,96.228515625 L76.591796875,46.8515625 L22.44921875,34.974609375 L2.677734375,-3.54296875 L-65.08203125,-17.123046875 L-59.173828125,-71.927734375 L-104.263671875,-91.109375 L-123.48828125,-128 L-128,-128 Z" style="fill:#FF6E00;" />
		<path d="M-128,-128 L-128,-125.837890625 L-107.869140625,-87.208984375 L-64.54296875,-68.779296875 L-70.54296875,-13.119140625 L-0.669921875,0.884765625 L19.078125,39.353515625 L72.51171875,51.07421875 L84.849609375,99.2734375 L126.248046875,128 L128,128 L128,126.78125 L86.6015625,98.0546875 L74.142578125,49.384765625 L20.42578125,37.6015625 L0.669921875,-0.88671875 L-68.359375,-14.720703125 L-62.396484375,-70.0390625 L-106.427734375,-88.76953125 L-126.87109375,-128 L-128,-128 Z" style="fill:#FF6100;" />
		<path d="M-34.912414551,77.837501526 L-34.912414551,67.535476685 Q-12.019012451,67.535476685 -12.019012451,62.956802368 L-12.019012451,-66.390808105 L-37.201751709,-66.390808105 Q-49.735870361,-66.390808105 -54.600708008,-62.498931885 Q-59.408325195,-58.607063293 -64.444885254,-42.92509079 L-75.777099609,-42.92509079 Q-71.541809082,-63.300201416 -71.541809082,-77.837501526 L71.541809082,-77.837501526 Q71.541809082,-63.300201416 75.777099609,-42.92509079 L64.444885254,-42.92509079 Q59.408325195,-58.607063293 54.543487549,-62.498931885 Q49.735870361,-66.390808105 37.201751709,-66.390808105 L12.019012451,-66.390808105 L12.019012451,62.956802368 Q12.019012451,67.535476685 34.912414551,67.535476685 L34.912414551,77.837501526 Q15.567504883,77.837501526 7.783752441,77.265167236 Q0,76.692832947 -7.783752441,77.265167236 Q-15.567504883,77.837501526 -34.912414551,77.837501526 Z" style="fill:#1E1E1E;stroke:#484848;stroke-linecap:butt;stroke-linejoin:miter;stroke-miterlimit:11.473713246;stroke-width:2;" />
	</g>
</svg>